<?xml version="1.0" standalone="no"?>
<!DOCTYPE svg PUBLIC "-//W3C//DTD SVG 20010904//EN"
 "http://www.w3.org/TR/2001/REC-SVG-20010904/DTD/svg10.dtd">
<svg version="1.0" xmlns="http://www.w3.org/2000/svg"
 width="500.000000pt" height="500.000000pt" viewBox="0 0 500.000000 500.000000"
 preserveAspectRatio="xMidYMid meet">

<g transform="translate(0.000000,500.000000) scale(0.100000,-0.100000)"
fill="#000000" stroke="none">
<path d="M2763 3661 c-94 -35 -166 -103 -212 -200 l-26 -56 -3 -823 -3 -823
-52 3 -52 3 -3 938 -2 937 -54 0 c-113 0 -271 -43 -374 -102 -82 -46 -192
-160 -232 -237 -55 -109 -62 -144 -65 -296 -2 -163 -3 -166 -107 -298 -38 -48
-73 -98 -77 -111 -13 -32 7 -67 44 -79 64 -21 80 -55 46 -99 -24 -30 -23 -108
1 -154 21 -39 24 -67 14 -130 -10 -66 9 -108 57 -123 19 -7 79 -15 134 -20 67
-6 113 -16 140 -29 58 -30 125 -110 164 -196 l34 -76 393 0 392 0 0 145 0 145
38 15 c88 37 164 119 191 205 9 30 19 38 62 53 98 35 171 149 156 244 -5 30
-1 38 34 70 111 101 137 261 61 383 -20 32 -26 52 -21 65 4 11 8 52 8 90 1 53
-5 82 -23 120 -25 55 -90 119 -142 141 -23 10 -36 23 -40 42 -23 95 -100 189
-192 234 -57 28 -79 33 -152 36 -64 2 -98 -2 -137 -17z m243 -85 c148 -69 208
-232 140 -383 -34 -75 -32 -98 9 -98 26 0 34 7 57 50 15 28 30 71 34 98 4 26
10 47 15 47 17 0 71 -55 89 -91 19 -36 29 -139 13 -139 -4 0 -21 5 -39 12 -62
22 -91 -38 -33 -70 54 -30 78 -52 106 -99 71 -122 3 -286 -136 -324 -73 -19
-88 -40 -54 -74 12 -12 25 -15 51 -10 l35 6 -6 -42 c-3 -23 -14 -54 -25 -68
-18 -25 -78 -71 -92 -71 -4 0 -10 18 -13 40 -11 82 -79 184 -119 178 -44 -6
-44 -32 -3 -93 35 -50 40 -65 43 -125 5 -84 -9 -130 -56 -182 -66 -73 -166
-103 -257 -78 -49 14 -75 4 -75 -30 0 -27 23 -40 89 -53 l61 -12 0 -103 0
-103 -117 3 -118 3 -3 309 -2 308 37 -4 c100 -12 183 55 183 146 0 49 -9 66
-34 66 -31 0 -46 -19 -46 -56 0 -67 -72 -102 -120 -59 -19 17 -20 30 -20 288
0 238 2 273 17 289 33 37 103 7 103 -45 0 -46 50 -64 71 -26 6 12 8 36 5 55
-14 71 -89 123 -163 111 l-35 -6 4 127 c4 112 7 133 30 177 24 45 52 78 100
114 61 46 194 54 274 17z"/>
<path d="M2812 3489 c-49 -24 -75 -57 -91 -114 -14 -52 -14 -52 9 -75 29 -29
55 -12 64 39 7 45 53 91 92 91 56 0 87 -31 109 -107 9 -34 62 -32 71 1 13 55
-32 133 -97 166 -49 26 -103 25 -157 -1z"/>
<path d="M2836 3194 c-33 -32 -15 -58 49 -67 57 -9 95 -53 95 -111 0 -45 -16
-70 -74 -111 -22 -16 -27 -25 -22 -42 18 -56 115 -13 157 69 21 41 25 111 8
155 -32 85 -167 153 -213 107z"/>
<path d="M3212 2928 c-20 -20 -13 -46 18 -68 52 -37 33 -120 -28 -120 -29 0
-54 -37 -41 -62 12 -23 59 -24 105 -2 90 43 100 178 18 243 -30 24 -54 27 -72
9z"/>
<path d="M2712 2868 c-33 -33 1 -142 61 -195 71 -62 180 -70 257 -19 76 50
106 137 49 144 -21 2 -31 -4 -49 -33 -26 -42 -66 -65 -115 -65 -72 0 -123 44
-136 117 -11 59 -38 80 -67 51z"/>
<path d="M2900 2415 c-9 -11 -10 -25 -2 -56 21 -83 -39 -140 -110 -105 -44 22
-75 20 -83 -5 -9 -28 28 -66 77 -79 113 -31 228 82 197 192 -16 61 -52 85 -79
53z"/>
<path d="M2130 1575 l0 -35 395 0 395 0 0 35 0 35 -395 0 -395 0 0 -35z"/>
<path d="M2260 1435 l0 -35 80 0 c71 0 80 -2 80 -18 0 -27 43 -63 77 -64 40
-1 68 16 83 52 l12 30 104 0 104 0 0 35 0 35 -270 0 -270 0 0 -35z"/>
</g>
</svg>
